<svg width="52" height="52" viewBox="0 0 52 52" fill="none" xmlns="http://www.w3.org/2000/svg">
<path d="M42.8594 4.57031C42.8594 2.05029 40.8091 0 38.2891 0H7.82031C5.30029 0 3.25 2.05029 3.25 4.57031V13.7109C3.25 16.231 5.30029 18.2813 7.82031 18.2813H38.2891C40.8091 18.2813 42.8594 16.231 42.8594 13.7109V12.1875H44.3828C45.2227 12.1875 45.9063 12.8711 45.9063 13.7109V19.8047C45.9063 20.6446 45.2227 21.3281 44.3828 21.3281H26.1016C23.5815 21.3281 21.5313 23.3784 21.5313 25.8984V30.4688H20.0078C19.1664 30.4688 18.4844 31.1507 18.4844 31.9922V38.003L16.9609 44.1952C15.9703 48.1573 18.964 52 23.0547 52C27.1473 52 30.1379 48.1533 29.15 44.2007L27.625 38.003V31.9922C27.625 31.1507 26.943 30.4688 26.1016 30.4688H24.5781V25.8984C24.5781 25.0586 25.2617 24.375 26.1016 24.375H44.3828C46.9028 24.375 48.9531 22.3247 48.9531 19.8047V13.7109C48.9531 11.1909 46.9028 9.14063 44.3828 9.14063H42.8594V4.57031ZM24.5781 33.5156V36.6641H21.5313V33.5156H24.5781ZM23.0547 48.9531C20.956 48.9531 19.4044 46.9834 19.9182 44.9287L21.202 39.7109H24.9074L26.1924 44.9343C26.7026 46.9746 25.1609 48.9531 23.0547 48.9531ZM7.82031 3.04688H38.2891C39.1289 3.04688 39.8125 3.73044 39.8125 4.57031V6.09375H35.2422C33.7616 6.09375 31.8684 6.64838 29.6761 7.29028C26.7149 8.15753 23.359 9.14063 20.0078 9.14063C16.7412 9.14063 14.4381 8.18649 12.4061 7.34503C10.8525 6.70154 9.38541 6.09375 7.82031 6.09375H6.29688V4.57031C6.29688 3.73044 6.98044 3.04688 7.82031 3.04688ZM39.8125 13.7109C39.8125 14.5508 39.1289 15.2344 38.2891 15.2344H7.82031C6.98044 15.2344 6.29688 14.5508 6.29688 13.7109V9.14063H7.82031C8.77921 9.14063 9.86545 9.59052 11.2401 10.1598C13.4209 11.0632 16.1349 12.1875 20.0078 12.1875C23.7962 12.1875 27.531 11.0933 30.5326 10.2146C32.4179 9.66232 34.1988 9.14063 35.2422 9.14063H39.8125V13.7109Z" fill="#FF5A30"/>
</svg>
