<svg width="52" height="52" viewBox="0 0 52 52" fill="none" xmlns="http://www.w3.org/2000/svg">
<g clip-path="url(#clip0_50055_2053)">
<path d="M45.9062 3.14844C43.6552 3.14844 41.6854 4.37521 40.6303 6.19531H1.52344C0.682094 6.19531 0 6.87741 0 7.71875V47.3281C0 48.1695 0.682094 48.8516 1.52344 48.8516H45.9062C49.2663 48.8516 52 46.1179 52 42.7578V9.24219C52 5.88209 49.2663 3.14844 45.9062 3.14844ZM45.9062 45.8047C45.3103 45.8047 3.6011 45.8047 3.04688 45.8047V9.24219H39.8125V42.7578C39.8125 43.5992 40.4946 44.2812 41.3359 44.2812C42.1773 44.2812 42.8594 43.5992 42.8594 42.7578C42.8594 41.0778 44.2262 39.7109 45.9062 39.7109C47.5863 39.7109 48.9531 41.0778 48.9531 42.7578C48.9531 44.4379 47.5863 45.8047 45.9062 45.8047ZM48.9531 37.4818C48.0563 36.9619 47.0153 36.6641 45.9062 36.6641C44.7972 36.6641 43.7562 36.9619 42.8594 37.4818V9.24219C42.8594 7.56214 44.2262 6.19531 45.9062 6.19531C47.5863 6.19531 48.9531 7.56214 48.9531 9.24219V37.4818Z" fill="#FF5A30"/>
<path d="M35.1406 12.2891H7.71875C6.87741 12.2891 6.19531 12.9712 6.19531 13.8125V41.2344C6.19531 42.0757 6.87741 42.7578 7.71875 42.7578H22.9531C23.3572 42.7578 23.7446 42.5972 24.0303 42.3115C24.3161 42.0259 24.4766 41.6384 24.4766 41.2344V38.1875C24.4766 36.2013 25.7501 34.507 27.5234 33.8782V41.2344C27.5234 42.0757 28.2055 42.7578 29.0469 42.7578H35.1406C35.982 42.7578 36.6641 42.0757 36.6641 41.2344V13.8125C36.6641 12.9712 35.982 12.2891 35.1406 12.2891ZM33.6172 39.7109H30.5703V32.0938C30.5703 31.2524 29.8882 30.5703 29.0469 30.5703C24.8468 30.5703 21.4297 33.9874 21.4297 38.1875V39.7109H9.24219V30.5703H15.3359V35.1406C15.3359 35.982 16.018 36.6641 16.8594 36.6641C17.7007 36.6641 18.3828 35.982 18.3828 35.1406V29.0469C18.3828 28.2055 17.7007 27.5234 16.8594 27.5234H9.24219V15.3359H18.3828V21.4297H13.8125C12.9712 21.4297 12.2891 22.1118 12.2891 22.9531C12.2891 23.7945 12.9712 24.4766 13.8125 24.4766H19.9062H26C26.8413 24.4766 27.5234 23.7945 27.5234 22.9531C27.5234 22.1118 26.8413 21.4297 26 21.4297H21.4297V15.3359H33.6172V39.7109Z" fill="#FF5A30"/>
</g>
<defs>
<clipPath id="clip0_50055_2053">
<rect width="52" height="52" fill="white"/>
</clipPath>
</defs>
</svg>
