<svg width="52" height="52" viewBox="0 0 52 52" fill="none" xmlns="http://www.w3.org/2000/svg">
<g clip-path="url(#clip0_50055_2125)">
<path d="M50.4766 27.5234C51.3179 27.5234 52 26.8413 52 26V14.625C52 13.7837 51.3179 13.1016 50.4766 13.1016C49.4146 13.1016 28.668 13.1016 27.5234 13.1016V3.25C27.5234 2.40866 26.8413 1.72656 26 1.72656H9.75C8.90866 1.72656 8.22656 2.40866 8.22656 3.25V13.1016H1.52344C0.682094 13.1016 0 13.7837 0 14.625V26C0 26.8413 0.682094 27.5234 1.52344 27.5234H8.22656V35.8516H1.52344C0.682094 35.8516 0 36.5337 0 37.375V48.75C0 49.5913 0.682094 50.2734 1.52344 50.2734H50.4766C51.3179 50.2734 52 49.5913 52 48.75V37.375C52 36.5337 51.3179 35.8516 50.4766 35.8516H43.7734V27.5234H50.4766ZM48.9531 24.4766C47.3232 24.4766 37.2597 24.4766 35.6484 24.4766V16.1484H48.9531V24.4766ZM32.6016 24.4766C31.0059 24.4766 21.0046 24.4766 19.3984 24.4766V16.1484H32.6016V24.4766ZM11.2734 4.77344H24.4766V13.1016C22.8809 13.1016 12.8796 13.1016 11.2734 13.1016V4.77344ZM3.04688 24.4766V16.1484H16.3516V24.4766C14.7396 24.4766 4.67645 24.4766 3.04688 24.4766ZM11.2734 27.5234H24.4766V35.8516C22.8809 35.8516 12.8796 35.8516 11.2734 35.8516V27.5234ZM3.04688 38.8984H16.3516V47.2266H3.04688V38.8984ZM19.3984 38.8984H32.6016V47.2266H19.3984V38.8984ZM48.9531 38.8984V47.2266H35.6484V38.8984H48.9531ZM40.7266 35.8516C39.1309 35.8516 29.1296 35.8516 27.5234 35.8516V27.5234H40.7266V35.8516Z" fill="#FF5A30"/>
</g>
<defs>
<clipPath id="clip0_50055_2125">
<rect width="52" height="52" fill="white"/>
</clipPath>
</defs>
</svg>
